<svg width="500" height="373" viewBox="0 0 500 373" fill="none" xmlns="http://www.w3.org/2000/svg">
<g clip-path="url(#clip0_92_368)">
<path d="M500 327.4H0V327.65H500V327.4Z" fill="#EBEBEB"/>
<path d="M449.9 343.49H416.78V343.74H449.9V343.49Z" fill="#EBEBEB"/>
<path d="M404.19 343.49H333.38V343.74H404.19V343.49Z" fill="#EBEBEB"/>
<path d="M294.33 334.21H275.14V334.46H294.33V334.21Z" fill="#EBEBEB"/>
<path d="M86.75 335.89H52.46V336.14H86.75V335.89Z" fill="#EBEBEB"/>
<path d="M158 335.89H95.65V336.14H158V335.89Z" fill="#EBEBEB"/>
<path d="M225.14 340.11H188.33V340.36H225.14V340.11Z" fill="#EBEBEB"/>
<path d="M237 282.8H43.91C42.3973 282.797 40.9475 282.195 39.8789 281.124C38.8102 280.053 38.21 278.603 38.21 277.09V5.66C38.2232 4.15602 38.8292 2.71798 39.8964 1.65822C40.9637 0.598458 42.406 0.00257639 43.91 0H237C238.514 0 239.967 0.601588 241.038 1.67242C242.108 2.74325 242.71 4.19561 242.71 5.71V277.09C242.71 278.604 242.108 280.057 241.038 281.128C239.967 282.198 238.514 282.8 237 282.8ZM43.91 0.200001C42.4636 0.20265 41.0774 0.779065 40.0557 1.80273C39.0339 2.82639 38.46 4.21365 38.46 5.66V277.09C38.46 278.536 39.0339 279.924 40.0557 280.947C41.0774 281.971 42.4636 282.547 43.91 282.55H237C238.447 282.547 239.835 281.971 240.858 280.948C241.881 279.924 242.457 278.537 242.46 277.09V5.66C242.457 4.21273 241.881 2.82549 240.858 1.80212C239.835 0.77874 238.447 0.202644 237 0.200001H43.91Z" fill="#EBEBEB"/>
<path d="M453.31 282.8H260.21C258.696 282.797 257.246 282.195 256.175 281.125C255.105 280.054 254.503 278.604 254.5 277.09V5.66C254.516 4.15511 255.124 2.71708 256.193 1.65759C257.262 0.598109 258.705 0.00254829 260.21 0H453.31C454.812 0.0052045 456.252 0.602249 457.317 1.66173C458.382 2.72121 458.987 4.15775 459 5.66V277.09C459 278.601 458.401 280.05 457.335 281.121C456.268 282.191 454.821 282.795 453.31 282.8ZM260.21 0.200001C258.763 0.202644 257.375 0.77874 256.352 1.80212C255.329 2.82549 254.753 4.21273 254.75 5.66V277.09C254.753 278.537 255.329 279.924 256.352 280.948C257.375 281.971 258.763 282.547 260.21 282.55H453.31C454.757 282.547 456.145 281.971 457.168 280.948C458.191 279.924 458.767 278.537 458.77 277.09V5.66C458.767 4.21273 458.191 2.82549 457.168 1.80212C456.145 0.77874 454.757 0.202644 453.31 0.200001H260.21Z" fill="#EBEBEB"/>
<path d="M336.99 321.78H355.5V187.21H336.99V321.78Z" fill="#F0F0F0"/>
<path d="M148.05 327.39H351.95V321.78H148.05V327.39Z" fill="#F0F0F0"/>
<path d="M336.99 187.22H144.49V321.79H336.99V187.22Z" fill="#F5F5F5"/>
<path d="M336.99 187.22H355.5V182.32H336.99V187.22Z" fill="#E6E6E6"/>
<path d="M336.99 182.32H144.49V187.22H336.99V182.32Z" fill="#F0F0F0"/>
<path d="M330.34 227.8H151.15V197.5H330.34V227.8ZM152.39 226.55H329.1V198.75H152.39V226.55Z" fill="#E0E0E0"/>
<path d="M330.34 311.5H151.15V235.23H330.34V311.5ZM152.39 310.26H329.1V236.47H152.39V310.26Z" fill="#E0E0E0"/>
<path d="M175.29 202.11L306.2 202.11V198.13L175.29 198.13V202.11Z" fill="#E0E0E0"/>
<path d="M175.29 239.83L306.2 239.83V235.85L175.29 235.85V239.83Z" fill="#E0E0E0"/>
<path d="M420.9 323.83C420.507 323.827 420.13 323.669 419.853 323.39C419.576 323.111 419.42 322.733 419.42 322.34V91.26C419.42 90.8675 419.576 90.491 419.854 90.2135C420.131 89.9359 420.508 89.78 420.9 89.78C421.293 89.78 421.669 89.9359 421.947 90.2135C422.224 90.491 422.38 90.8675 422.38 91.26V322.34C422.38 322.733 422.224 323.111 421.947 323.39C421.67 323.669 421.293 323.827 420.9 323.83Z" fill="#F5F5F5"/>
<path d="M417.92 320.25H423.92C424.997 320.25 426.029 320.678 426.791 321.439C427.552 322.201 427.98 323.233 427.98 324.31V327.39H413.86V324.31C413.86 323.233 414.288 322.201 415.049 321.439C415.811 320.678 416.843 320.25 417.92 320.25Z" fill="#F0F0F0"/>
<path d="M392.14 122C392.14 122 392.87 93.72 420.9 93.72C448.93 93.72 449.67 122 449.67 122H392.14Z" fill="#E0E0E0"/>
<path d="M79.1 323.83C78.7048 323.83 78.3258 323.673 78.0464 323.394C77.767 323.114 77.61 322.735 77.61 322.34V91.26C77.6126 90.8666 77.7708 90.4901 78.0499 90.2129C78.3291 89.9356 78.7066 89.78 79.1 89.78C79.4925 89.78 79.869 89.9359 80.1465 90.2135C80.4241 90.491 80.58 90.8675 80.58 91.26V322.34C80.58 322.733 80.4244 323.111 80.1471 323.39C79.8699 323.669 79.4934 323.827 79.1 323.83Z" fill="#F5F5F5"/>
<path d="M76.12 320.25H82.12C83.1968 320.25 84.2295 320.678 84.9909 321.439C85.7522 322.201 86.18 323.233 86.18 324.31V327.39H72.06V324.31C72.06 323.777 72.165 323.249 72.369 322.756C72.5731 322.264 72.8721 321.816 73.2491 321.439C73.6262 321.062 74.0737 320.763 74.5663 320.559C75.0589 320.355 75.5868 320.25 76.12 320.25Z" fill="#F0F0F0"/>
<path d="M50.33 122C50.33 122 51.06 93.72 79.1 93.72C107.14 93.72 107.86 122 107.86 122H50.33Z" fill="#E0E0E0"/>
<path d="M286.05 180.2H214.91V182.32H286.05V180.2Z" fill="#E0E0E0"/>
<path d="M286.05 180.2H214.91L221.75 139.47H292.89L286.05 180.2Z" fill="#E0E0E0"/>
<path d="M284.73 180.2H213.59L220.43 139.47H291.57L284.73 180.2Z" fill="#EBEBEB"/>
<path d="M216.29 177L222.11 142.37C222.144 142.156 222.253 141.962 222.418 141.822C222.584 141.683 222.794 141.607 223.01 141.61H288.01C288.142 141.61 288.273 141.638 288.394 141.694C288.514 141.749 288.62 141.83 288.706 141.931C288.792 142.032 288.854 142.15 288.89 142.278C288.925 142.406 288.932 142.539 288.91 142.67L283.09 177.3C283.055 177.514 282.945 177.708 282.78 177.849C282.616 177.99 282.407 178.068 282.19 178.07H217.19C217.057 178.071 216.925 178.042 216.804 177.986C216.683 177.93 216.575 177.848 216.489 177.746C216.404 177.644 216.341 177.524 216.307 177.395C216.272 177.266 216.267 177.131 216.29 177Z" fill="#FAFAFA"/>
<path d="M269.95 180.2H198.81V182.32H269.95V180.2Z" fill="#F0F0F0"/>
<path d="M342.89 32.76H154.41V93.68H342.89V32.76Z" fill="#EBEBEB"/>
<path d="M342.89 93.67H345.59V32.75H342.89V93.67Z" fill="#E0E0E0"/>
<path d="M334.63 41.01H162.66V85.42H334.63V41.01Z" fill="white"/>
<path d="M259 63.2163L248.648 52.8643L238.296 63.2163L248.648 73.5683L259 63.2163Z" fill="#F5F5F5"/>
<path d="M231.209 63.2158L220.857 52.8637L210.505 63.2158L220.857 73.5678L231.209 63.2158Z" fill="#F5F5F5"/>
<path d="M203.419 63.2153L193.067 52.8632L182.715 63.2153L193.067 73.5673L203.419 63.2153Z" fill="#F5F5F5"/>
<path d="M286.79 63.2168L276.438 52.8647L266.086 63.2168L276.438 73.5688L286.79 63.2168Z" fill="#F5F5F5"/>
<path d="M314.581 63.2173L304.229 52.8652L293.877 63.2173L304.229 73.5693L314.581 63.2173Z" fill="#F5F5F5"/>
<path d="M250 372.56C357.082 372.56 443.89 367.492 443.89 361.24C443.89 354.988 357.082 349.92 250 349.92C142.918 349.92 56.11 354.988 56.11 361.24C56.11 367.492 142.918 372.56 250 372.56Z" fill="#F5F5F5"/>
<path d="M362.94 68.05C363.032 66.8938 362.882 65.7311 362.499 64.6363C362.116 63.5415 361.509 62.5385 360.716 61.6915C359.924 60.8446 358.964 60.1722 357.897 59.7174C356.83 59.2625 355.68 59.0352 354.52 59.05H216.09C213.655 59.0846 211.321 60.0262 209.544 61.6907C207.766 63.3551 206.674 65.6227 206.48 68.05L203.3 116L183.37 263.41C183.176 264.532 183.233 265.684 183.538 266.781C183.842 267.878 184.387 268.894 185.133 269.756C185.878 270.617 186.805 271.302 187.848 271.761C188.89 272.22 190.021 272.442 191.16 272.41H329.6C332.089 272.344 334.475 271.407 336.345 269.762C338.214 268.118 339.447 265.87 339.83 263.41L359.76 116L362.94 68.05Z" fill="#38A9FF"/>
<path opacity="0.2" d="M362.94 68.05C363.032 66.8938 362.882 65.7311 362.499 64.6363C362.116 63.5415 361.509 62.5385 360.716 61.6915C359.924 60.8446 358.964 60.1722 357.897 59.7174C356.83 59.2625 355.68 59.0352 354.52 59.05H216.09C213.655 59.0846 211.321 60.0262 209.544 61.6907C207.766 63.3551 206.674 65.6227 206.48 68.05L203.3 116L183.37 263.41C183.176 264.532 183.233 265.684 183.538 266.781C183.842 267.878 184.387 268.894 185.133 269.756C185.878 270.617 186.805 271.302 187.848 271.761C188.89 272.22 190.021 272.442 191.16 272.41H329.6C332.089 272.344 334.475 271.407 336.345 269.762C338.214 268.118 339.447 265.87 339.83 263.41L359.76 116L362.94 68.05Z" fill="black"/>
<path d="M324.67 272.42H186.23C185.092 272.45 183.962 272.227 182.92 271.767C181.879 271.307 180.952 270.623 180.207 269.762C179.462 268.901 178.917 267.886 178.612 266.789C178.306 265.693 178.247 264.542 178.44 263.42L198.37 116H354.83L334.9 263.41C334.519 265.872 333.287 268.122 331.417 269.768C329.548 271.415 327.16 272.353 324.67 272.42Z" fill="#38A9FF"/>
<path d="M236.67 55.53H216.05V56.53H236.67V55.53Z" fill="#38A9FF"/>
<path d="M206.3 57.6L205.88 56.69C207.536 55.9271 209.337 55.5314 211.16 55.53V56.53C209.482 56.5312 207.824 56.8963 206.3 57.6Z" fill="#38A9FF"/>
<path d="M349.6 59H211.16C208.725 59.0346 206.391 59.9762 204.614 61.6407C202.836 63.3051 201.744 65.5727 201.55 68L198.37 116H354.83L358 68.05C358.101 66.8912 357.957 65.7241 357.58 64.624C357.202 63.5239 356.598 62.5151 355.807 61.6625C355.015 60.81 354.054 60.1326 352.985 59.6741C351.916 59.2155 350.763 58.9859 349.6 59Z" fill="#38A9FF"/>
<path opacity="0.9" d="M206.1 104.26L208.32 70.73C208.422 69.4518 208.997 68.2576 209.933 67.381C210.869 66.5043 212.098 66.0083 213.38 65.99H346.45C347.061 65.9809 347.667 66.0998 348.229 66.339C348.792 66.5782 349.298 66.9324 349.715 67.3788C350.132 67.8252 350.451 68.354 350.652 68.9311C350.853 69.5083 350.93 70.121 350.88 70.73L348.66 104.26C348.556 105.537 347.98 106.73 347.045 107.606C346.109 108.483 344.881 108.979 343.6 109H210.53C209.919 109.007 209.314 108.888 208.753 108.648C208.191 108.408 207.686 108.054 207.269 107.608C206.852 107.162 206.533 106.634 206.331 106.057C206.13 105.481 206.051 104.869 206.1 104.26Z" fill="white"/>
<g opacity="0.4">
<path d="M336.86 71.48L335.35 72.89C335.313 72.926 335.269 72.9542 335.221 72.9731C335.173 72.992 335.122 73.0011 335.07 73H327.07C327.014 73.0014 326.958 72.9904 326.906 72.968C326.854 72.9455 326.808 72.9121 326.77 72.87L325.47 71.47C325.415 71.4116 325.379 71.3385 325.365 71.2597C325.352 71.1809 325.362 71.0999 325.393 71.0266C325.425 70.9532 325.478 70.8908 325.545 70.847C325.612 70.8032 325.69 70.7799 325.77 70.78H336.6C336.681 70.7809 336.76 70.8064 336.826 70.8529C336.892 70.8994 336.942 70.9649 336.97 71.0407C336.999 71.1165 337.003 71.1991 336.983 71.2775C336.964 71.3559 336.921 71.4266 336.86 71.48Z" fill="#38A9FF"/>
<path d="M334.74 97.47H323.91C323.828 97.4701 323.747 97.4454 323.679 97.3991C323.611 97.3528 323.558 97.2871 323.528 97.2104C323.498 97.1338 323.491 97.0498 323.51 96.9695C323.528 96.8892 323.57 96.8162 323.63 96.76L325.13 95.36C325.207 95.2908 325.306 95.2518 325.41 95.25H333.41C333.467 95.2485 333.524 95.2603 333.577 95.2846C333.629 95.3089 333.674 95.345 333.71 95.39L335.02 96.79C335.071 96.8474 335.104 96.9179 335.117 96.9933C335.129 97.0688 335.121 97.1463 335.091 97.2171C335.062 97.2878 335.014 97.349 334.952 97.3937C334.89 97.4384 334.816 97.4648 334.74 97.47Z" fill="#38A9FF"/>
<path d="M335.79 84.4L335.02 85.13C334.943 85.1992 334.844 85.2383 334.74 85.2401H325.35C325.294 85.2388 325.24 85.2263 325.189 85.2033C325.138 85.1802 325.093 85.1471 325.056 85.1059C325.018 85.0648 324.989 85.0164 324.971 84.9638C324.953 84.9112 324.946 84.8555 324.95 84.8L325.05 83.39C325.058 83.2866 325.104 83.1899 325.18 83.1193C325.256 83.0488 325.356 83.0098 325.46 83.01H334.88C334.936 83.0094 334.992 83.0206 335.044 83.043C335.096 83.0654 335.142 83.0985 335.18 83.14L335.82 83.83C335.856 83.8692 335.884 83.9151 335.902 83.9652C335.92 84.0152 335.927 84.0683 335.925 84.1213C335.922 84.1744 335.908 84.2264 335.885 84.2742C335.862 84.3221 335.83 84.3648 335.79 84.4Z" fill="#38A9FF"/>
<path d="M337.07 85.17L336.28 96C336.273 96.079 336.243 96.1542 336.194 96.2165C336.144 96.2788 336.078 96.3254 336.003 96.3508C335.928 96.3762 335.847 96.3793 335.77 96.3596C335.693 96.34 335.624 96.2984 335.57 96.24L334.28 94.84C334.241 94.7987 334.211 94.7499 334.193 94.6965C334.174 94.6432 334.166 94.5865 334.17 94.53L334.76 86.48C334.762 86.4284 334.774 86.3778 334.796 86.3313C334.819 86.2848 334.851 86.2435 334.89 86.21L336.39 84.81C336.452 84.754 336.531 84.7186 336.614 84.7084C336.697 84.6982 336.781 84.7137 336.855 84.753C336.93 84.7922 336.99 84.8532 337.028 84.9278C337.067 85.0024 337.081 85.0869 337.07 85.17Z" fill="#38A9FF"/>
<path d="M338 72.32L337.21 83.18C337.204 83.2598 337.176 83.3363 337.127 83.4C337.079 83.4637 337.013 83.5118 336.937 83.5383C336.862 83.5649 336.78 83.5688 336.702 83.5496C336.625 83.5303 336.554 83.4888 336.5 83.43L335.2 82.02C335.164 81.9791 335.137 81.9315 335.12 81.88C335.103 81.8285 335.096 81.7741 335.1 81.72L335.68 73.67C335.69 73.5673 335.736 73.4715 335.81 73.4L337.31 71.99C337.37 71.9332 337.446 71.896 337.528 71.8833C337.61 71.8705 337.693 71.8828 337.768 71.9185C337.843 71.9542 337.905 72.0117 337.946 72.0833C337.988 72.155 338.006 72.2375 338 72.32Z" fill="#38A9FF"/>
</g>
<path opacity="0.4" d="M319.52 102C319.552 101.627 319.721 101.278 319.994 101.022C320.267 100.765 320.625 100.618 321 100.61H338C338.199 100.608 338.396 100.647 338.578 100.725C338.761 100.803 338.926 100.918 339.062 101.063C339.198 101.207 339.303 101.379 339.37 101.566C339.436 101.753 339.464 101.952 339.45 102.15C339.418 102.525 339.248 102.875 338.972 103.132C338.697 103.388 338.336 103.534 337.96 103.54H321C320.798 103.549 320.596 103.515 320.409 103.44C320.221 103.365 320.051 103.251 319.911 103.105C319.771 102.96 319.663 102.786 319.596 102.595C319.529 102.404 319.503 102.201 319.52 102Z" fill="#38A9FF"/>
<path opacity="0.4" d="M298.26 102C298.292 101.627 298.461 101.278 298.734 101.022C299.007 100.765 299.365 100.618 299.74 100.61H316.74C316.939 100.608 317.136 100.647 317.318 100.725C317.501 100.803 317.666 100.918 317.802 101.063C317.938 101.207 318.043 101.379 318.11 101.566C318.176 101.753 318.204 101.952 318.19 102.15C318.158 102.525 317.988 102.875 317.712 103.132C317.437 103.388 317.076 103.534 316.7 103.54H299.7C299.501 103.543 299.304 103.505 299.121 103.428C298.938 103.35 298.773 103.235 298.638 103.09C298.502 102.945 298.398 102.773 298.333 102.585C298.268 102.397 298.243 102.198 298.26 102Z" fill="#38A9FF"/>
<path opacity="0.4" d="M277 102C277.032 101.627 277.201 101.278 277.474 101.022C277.747 100.765 278.105 100.618 278.48 100.61H295.48C295.678 100.61 295.874 100.65 296.055 100.728C296.237 100.807 296.4 100.922 296.535 101.066C296.67 101.211 296.774 101.382 296.84 101.568C296.907 101.755 296.934 101.953 296.92 102.15C296.89 102.526 296.721 102.877 296.445 103.134C296.169 103.391 295.807 103.536 295.43 103.54H278.43C278.232 103.542 278.036 103.503 277.854 103.425C277.672 103.347 277.509 103.231 277.374 103.086C277.24 102.941 277.137 102.77 277.072 102.583C277.008 102.396 276.983 102.197 277 102Z" fill="#38A9FF"/>
<path opacity="0.4" d="M255.74 102C255.772 101.627 255.941 101.278 256.214 101.022C256.487 100.765 256.845 100.618 257.22 100.61H274.22C274.418 100.61 274.614 100.65 274.795 100.728C274.977 100.807 275.14 100.922 275.275 101.066C275.41 101.211 275.514 101.382 275.58 101.568C275.647 101.755 275.674 101.953 275.66 102.15C275.63 102.526 275.461 102.877 275.185 103.134C274.909 103.391 274.547 103.536 274.17 103.54H257.17C256.972 103.542 256.776 103.503 256.594 103.425C256.412 103.347 256.249 103.231 256.114 103.086C255.98 102.941 255.877 102.77 255.812 102.583C255.748 102.396 255.723 102.197 255.74 102Z" fill="#38A9FF"/>
<path opacity="0.1" d="M208.79 184.37L215.05 138.1C215.284 136.583 216.042 135.197 217.194 134.183C218.345 133.169 219.816 132.591 221.35 132.55H267.62C268.322 132.531 269.019 132.668 269.662 132.951C270.304 133.234 270.876 133.656 271.335 134.188C271.795 134.719 272.13 135.345 272.318 136.022C272.505 136.698 272.54 137.408 272.42 138.1L266.16 184.37C265.928 185.886 265.172 187.272 264.022 188.286C262.872 189.301 261.403 189.879 259.87 189.92H213.59C212.888 189.939 212.191 189.802 211.548 189.519C210.906 189.236 210.334 188.814 209.875 188.282C209.415 187.751 209.08 187.125 208.892 186.448C208.705 185.772 208.67 185.062 208.79 184.37Z" fill="#263238"/>
<path opacity="0.1" d="M274.71 184.37L281 138.1C281.234 136.583 281.992 135.197 283.144 134.183C284.295 133.169 285.766 132.591 287.3 132.55H333.57C334.272 132.529 334.971 132.665 335.614 132.947C336.258 133.23 336.83 133.652 337.29 134.184C337.749 134.715 338.085 135.343 338.272 136.02C338.459 136.697 338.492 137.408 338.37 138.1L332.12 184.37C331.884 185.886 331.125 187.271 329.974 188.285C328.823 189.299 327.353 189.877 325.82 189.92H279.5C278.798 189.94 278.101 189.803 277.459 189.519C276.817 189.236 276.246 188.814 275.787 188.282C275.329 187.751 274.994 187.124 274.808 186.448C274.621 185.771 274.588 185.061 274.71 184.37Z" fill="#263238"/>
<path opacity="0.1" d="M199.88 250.29L206.14 204C206.376 202.484 207.135 201.099 208.286 200.085C209.437 199.071 210.907 198.493 212.44 198.45H258.71C259.412 198.431 260.109 198.568 260.752 198.851C261.394 199.134 261.966 199.556 262.425 200.088C262.885 200.619 263.22 201.245 263.408 201.922C263.595 202.598 263.63 203.308 263.51 204L257.25 250.28C257.016 251.794 256.259 253.178 255.109 254.19C253.96 255.203 252.491 255.779 250.96 255.82H204.68C203.98 255.839 203.285 255.702 202.644 255.42C202.003 255.138 201.433 254.718 200.974 254.189C200.515 253.66 200.179 253.036 199.99 252.362C199.8 251.688 199.763 250.98 199.88 250.29Z" fill="#263238"/>
<path opacity="0.1" d="M265.8 250.29L272.05 204C272.286 202.484 273.045 201.099 274.196 200.085C275.347 199.071 276.817 198.493 278.35 198.45H324.62C325.322 198.431 326.019 198.568 326.662 198.851C327.304 199.134 327.876 199.556 328.335 200.088C328.795 200.619 329.13 201.245 329.318 201.922C329.505 202.598 329.54 203.308 329.42 204L323.17 250.28C322.932 251.794 322.172 253.177 321.021 254.189C319.871 255.201 318.402 255.778 316.87 255.82H270.59C269.89 255.839 269.195 255.703 268.555 255.42C267.914 255.138 267.344 254.718 266.886 254.189C266.428 253.66 266.093 253.035 265.905 252.361C265.717 251.687 265.681 250.98 265.8 250.29Z" fill="#263238"/>
<path d="M205.71 184.37L212 138.1C212.234 136.583 212.992 135.197 214.144 134.183C215.295 133.169 216.766 132.591 218.3 132.55H264.57C265.272 132.531 265.969 132.668 266.612 132.951C267.254 133.234 267.826 133.656 268.285 134.188C268.744 134.719 269.08 135.345 269.268 136.022C269.455 136.698 269.49 137.408 269.37 138.1L263.11 184.37C262.878 185.886 262.122 187.272 260.972 188.286C259.822 189.301 258.353 189.879 256.82 189.92H210.51C209.808 189.939 209.111 189.802 208.468 189.519C207.826 189.236 207.254 188.814 206.795 188.282C206.335 187.751 206 187.125 205.812 186.448C205.625 185.772 205.59 185.062 205.71 184.37Z" fill="#38A9FF"/>
<path opacity="0.2" d="M205.71 184.37L212 138.1C212.234 136.583 212.992 135.197 214.144 134.183C215.295 133.169 216.766 132.591 218.3 132.55H264.57C265.272 132.531 265.969 132.668 266.612 132.951C267.254 133.234 267.826 133.656 268.285 134.188C268.744 134.719 269.08 135.345 269.268 136.022C269.455 136.698 269.49 137.408 269.37 138.1L263.11 184.37C262.878 185.886 262.122 187.272 260.972 188.286C259.822 189.301 258.353 189.879 256.82 189.92H210.51C209.808 189.939 209.111 189.802 208.468 189.519C207.826 189.236 207.254 188.814 206.795 188.282C206.335 187.751 206 187.125 205.812 186.448C205.625 185.772 205.59 185.062 205.71 184.37Z" fill="white"/>
<path d="M271.63 184.37L277.88 138.1C278.114 136.583 278.872 135.197 280.024 134.183C281.175 133.169 282.646 132.591 284.18 132.55H330.45C331.152 132.529 331.851 132.665 332.494 132.947C333.138 133.23 333.71 133.652 334.17 134.184C334.629 134.715 334.965 135.343 335.152 136.02C335.339 136.697 335.372 137.408 335.25 138.1L329 184.37C328.764 185.886 328.005 187.271 326.854 188.285C325.703 189.299 324.233 189.877 322.7 189.92H276.42C275.718 189.94 275.021 189.803 274.379 189.519C273.737 189.236 273.166 188.814 272.707 188.282C272.249 187.751 271.914 187.124 271.728 186.448C271.541 185.771 271.508 185.061 271.63 184.37Z" fill="#38A9FF"/>
<path opacity="0.2" d="M271.63 184.37L277.88 138.1C278.114 136.583 278.872 135.197 280.024 134.183C281.175 133.169 282.646 132.591 284.18 132.55H330.45C331.152 132.529 331.851 132.665 332.494 132.947C333.138 133.23 333.71 133.652 334.17 134.184C334.629 134.715 334.965 135.343 335.152 136.02C335.339 136.697 335.372 137.408 335.25 138.1L329 184.37C328.764 185.886 328.005 187.271 326.854 188.285C325.703 189.299 324.233 189.877 322.7 189.92H276.42C275.718 189.94 275.021 189.803 274.379 189.519C273.737 189.236 273.166 188.814 272.707 188.282C272.249 187.751 271.914 187.124 271.728 186.448C271.541 185.771 271.508 185.061 271.63 184.37Z" fill="white"/>
<path d="M196.8 250.29L203.06 204C203.296 202.484 204.055 201.099 205.206 200.085C206.357 199.071 207.827 198.493 209.36 198.45H255.63C256.332 198.431 257.029 198.568 257.672 198.851C258.314 199.134 258.886 199.556 259.345 200.088C259.804 200.619 260.14 201.245 260.328 201.922C260.515 202.598 260.55 203.308 260.43 204L254.17 250.28C253.936 251.794 253.179 253.178 252.029 254.19C250.88 255.203 249.411 255.779 247.88 255.82H201.6C200.9 255.839 200.205 255.702 199.564 255.42C198.923 255.138 198.353 254.718 197.894 254.189C197.435 253.66 197.099 253.036 196.91 252.362C196.72 251.688 196.683 250.98 196.8 250.29Z" fill="#38A9FF"/>
<path opacity="0.2" d="M196.8 250.29L203.06 204C203.296 202.484 204.055 201.099 205.206 200.085C206.357 199.071 207.827 198.493 209.36 198.45H255.63C256.332 198.431 257.029 198.568 257.672 198.851C258.314 199.134 258.886 199.556 259.345 200.088C259.804 200.619 260.14 201.245 260.328 201.922C260.515 202.598 260.55 203.308 260.43 204L254.17 250.28C253.936 251.794 253.179 253.178 252.029 254.19C250.88 255.203 249.411 255.779 247.88 255.82H201.6C200.9 255.839 200.205 255.702 199.564 255.42C198.923 255.138 198.353 254.718 197.894 254.189C197.435 253.66 197.099 253.036 196.91 252.362C196.72 251.688 196.683 250.98 196.8 250.29Z" fill="white"/>
<path d="M262.72 250.29L269 204C269.236 202.484 269.995 201.099 271.146 200.085C272.297 199.071 273.767 198.493 275.3 198.45H321.57C322.272 198.431 322.969 198.568 323.612 198.851C324.254 199.134 324.826 199.556 325.285 200.088C325.744 200.619 326.08 201.245 326.268 201.922C326.455 202.598 326.49 203.308 326.37 204L320.12 250.28C319.882 251.794 319.122 253.177 317.971 254.189C316.821 255.201 315.352 255.778 313.82 255.82H267.51C266.81 255.839 266.115 255.703 265.475 255.42C264.834 255.138 264.265 254.718 263.806 254.189C263.348 253.66 263.013 253.035 262.825 252.361C262.637 251.687 262.601 250.98 262.72 250.29Z" fill="#38A9FF"/>
<path opacity="0.2" d="M262.72 250.29L269 204C269.236 202.484 269.995 201.099 271.146 200.085C272.297 199.071 273.767 198.493 275.3 198.45H321.57C322.272 198.431 322.969 198.568 323.612 198.851C324.254 199.134 324.826 199.556 325.285 200.088C325.744 200.619 326.08 201.245 326.268 201.922C326.455 202.598 326.49 203.308 326.37 204L320.12 250.28C319.882 251.794 319.122 253.177 317.971 254.189C316.821 255.201 315.352 255.778 313.82 255.82H267.51C266.81 255.839 266.115 255.703 265.475 255.42C264.834 255.138 264.265 254.718 263.806 254.189C263.348 253.66 263.013 253.035 262.825 252.361C262.637 251.687 262.601 250.98 262.72 250.29Z" fill="white"/>
<path d="M234.92 180.49C234.219 180.506 233.524 180.366 232.883 180.082C232.242 179.798 231.672 179.375 231.213 178.845C230.755 178.315 230.419 177.69 230.23 177.015C230.041 176.34 230.003 175.631 230.12 174.94L233.83 147.54C234.067 146.024 234.827 144.639 235.977 143.623C237.127 142.608 238.596 142.027 240.13 141.98C240.832 141.962 241.53 142.101 242.172 142.385C242.815 142.669 243.386 143.093 243.845 143.624C244.304 144.156 244.64 144.783 244.827 145.46C245.015 146.137 245.05 146.848 244.93 147.54L241.23 174.94C240.99 176.456 240.229 177.84 239.076 178.854C237.924 179.867 236.454 180.446 234.92 180.49Z" fill="white"/>
<path d="M218.27 161.24C218.509 159.723 219.271 158.338 220.423 157.323C221.575 156.307 223.045 155.726 224.58 155.68H252C252.702 155.664 253.398 155.804 254.04 156.089C254.682 156.374 255.252 156.797 255.711 157.328C256.17 157.86 256.505 158.486 256.694 159.162C256.882 159.838 256.918 160.548 256.8 161.24C256.561 162.754 255.8 164.137 254.65 165.15C253.5 166.164 252.032 166.744 250.5 166.79H223.1C222.397 166.81 221.698 166.674 221.053 166.392C220.409 166.109 219.835 165.688 219.373 165.157C218.911 164.626 218.573 163.999 218.382 163.322C218.191 162.645 218.153 161.934 218.27 161.24Z" fill="white"/>
<path d="M213.16 240.76C211.29 238.6 211.77 235.07 214.22 232.91L236.22 213.53C238.67 211.37 242.22 211.37 244.07 213.53C245.94 215.69 245.46 219.23 243.01 221.39L221.01 240.76C218.56 242.92 215 242.92 213.16 240.76Z" fill="white"/>
<path d="M216.84 213.53C219.29 211.37 222.84 211.37 224.7 213.53L241.45 232.91C243.32 235.07 242.84 238.6 240.39 240.76C237.94 242.92 234.39 242.92 232.54 240.76L215.78 221.39C213.91 219.23 214.39 215.69 216.84 213.53Z" fill="white"/>
<path d="M284.18 161.24C284.419 159.723 285.181 158.338 286.333 157.323C287.485 156.307 288.955 155.726 290.49 155.68H317.89C318.592 155.662 319.29 155.801 319.932 156.085C320.575 156.369 321.146 156.793 321.605 157.324C322.064 157.856 322.4 158.483 322.587 159.16C322.775 159.837 322.81 160.548 322.69 161.24C322.451 162.754 321.69 164.137 320.54 165.15C319.39 166.164 317.922 166.744 316.39 166.79H289C288.298 166.809 287.6 166.672 286.956 166.388C286.313 166.105 285.741 165.683 285.28 165.153C284.819 164.622 284.481 163.996 284.291 163.32C284.101 162.643 284.063 161.933 284.18 161.24Z" fill="white"/>
<path d="M276.44 218.51C276.68 216.994 277.441 215.61 278.594 214.596C279.746 213.583 281.216 213.004 282.75 212.96H310.15C310.851 212.944 311.546 213.084 312.187 213.368C312.828 213.652 313.398 214.075 313.857 214.605C314.315 215.135 314.651 215.76 314.84 216.435C315.029 217.11 315.067 217.819 314.95 218.51C314.713 220.026 313.953 221.411 312.803 222.427C311.653 223.442 310.184 224.023 308.65 224.07H281.24C280.538 224.086 279.842 223.946 279.2 223.661C278.558 223.376 277.988 222.953 277.529 222.422C277.07 221.89 276.735 221.264 276.546 220.588C276.358 219.912 276.322 219.202 276.44 218.51Z" fill="white"/>
<path d="M274.11 235.78C274.349 234.266 275.11 232.883 276.26 231.87C277.41 230.856 278.878 230.276 280.41 230.23H307.81C308.512 230.213 309.208 230.351 309.85 230.635C310.492 230.919 311.064 231.341 311.523 231.871C311.983 232.402 312.32 233.027 312.509 233.703C312.699 234.379 312.737 235.088 312.62 235.78C312.381 237.297 311.619 238.682 310.467 239.697C309.315 240.713 307.845 241.294 306.31 241.34H278.91C278.208 241.358 277.51 241.219 276.868 240.935C276.225 240.651 275.654 240.227 275.195 239.696C274.736 239.164 274.4 238.537 274.213 237.86C274.025 237.182 273.99 236.472 274.11 235.78Z" fill="white"/>
<path d="M133.36 124.7C131.56 128.04 129.71 131.64 128.02 135.16C126.33 138.68 124.7 142.27 123.3 145.86C122.93 146.76 122.63 147.66 122.3 148.56C122.125 149.021 122.023 149.507 122 150C121.96 151.419 122.222 152.83 122.77 154.14C124.202 157.505 126.104 160.65 128.42 163.48L125.01 167.48C124.059 166.866 123.144 166.198 122.27 165.48C121.392 164.792 120.554 164.054 119.76 163.27C118.076 161.654 116.601 159.833 115.37 157.85C113.937 155.575 113.041 153.003 112.75 150.33C112.607 148.79 112.732 147.237 113.12 145.74C113.4 144.74 113.66 143.64 113.98 142.61C115.205 138.522 116.685 134.514 118.41 130.61C119.27 128.68 120.15 126.77 121.12 124.89C122.09 123.01 123.02 121.19 124.18 119.27L133.36 124.7Z" fill="#FF8B7B"/>
<path d="M127 162.33L132 163.65L128.28 170.88C128.28 170.88 124.56 169.46 123.64 166.19L127 162.33Z" fill="#FF8B7B"/>
<path d="M138.9 165.93L134.42 171.6L128.29 170.88L132.01 163.65L138.9 165.93Z" fill="#FF8B7B"/>
<path d="M156.94 86.56C157.05 87.12 157.44 87.51 157.8 87.44C158.16 87.37 158.37 86.85 158.25 86.3C158.13 85.75 157.75 85.3 157.39 85.42C157.03 85.54 156.82 86 156.94 86.56Z" fill="#263238"/>
<path d="M157.39 87.52C158.397 89.0864 159.615 90.5064 161.01 91.74C160.681 92.0814 160.281 92.3475 159.839 92.5201C159.398 92.6927 158.924 92.7678 158.45 92.74L157.39 87.52Z" fill="#FF5652"/>
<path d="M158.14 91.3C156.51 91.3 154.89 89.52 154.4 87.08C154.133 85.8892 154.213 84.6468 154.63 83.5C154.746 83.0277 154.994 82.5981 155.345 82.2611C155.695 81.9241 156.134 81.6935 156.611 81.5961C157.087 81.4987 157.582 81.5385 158.037 81.7109C158.491 81.8833 158.888 82.1812 159.18 82.57C159.992 83.4775 160.548 84.5847 160.79 85.778C161.033 86.9712 160.953 88.2076 160.56 89.36C160.416 89.821 160.157 90.2376 159.807 90.5702C159.457 90.9028 159.028 91.1402 158.56 91.26C158.422 91.2869 158.281 91.3003 158.14 91.3ZM157.06 81.81C156.927 81.7952 156.793 81.7952 156.66 81.81C156.237 81.9242 155.851 82.1438 155.536 82.4481C155.221 82.7524 154.988 83.1315 154.86 83.55C154.461 84.6525 154.385 85.8457 154.64 86.99C155.15 89.52 156.89 91.31 158.53 90.99C158.954 90.8783 159.342 90.6597 159.657 90.355C159.972 90.0504 160.204 89.6699 160.33 89.25C160.706 88.1435 160.782 86.9572 160.55 85.8118C160.318 84.6665 159.787 83.6031 159.01 82.73C158.762 82.4549 158.462 82.232 158.127 82.074C157.793 81.9161 157.43 81.8263 157.06 81.81Z" fill="#263238"/>
<path d="M209.64 144.2L216.05 142.84L216.88 151.54C216.88 151.54 211.34 152.6 208.69 148.22L209.64 144.2Z" fill="#FF8B7B"/>
<path d="M222.11 144.79L221.7 151.14L216.88 151.54L216.05 142.84L222.11 144.79Z" fill="#FF8B7B"/>
<path d="M154.27 83.89C154.229 83.8902 154.189 83.8824 154.151 83.8669C154.113 83.8515 154.079 83.8287 154.05 83.8C154.018 83.77 153.992 83.7337 153.974 83.6932C153.956 83.6528 153.947 83.6091 153.947 83.565C153.947 83.5208 153.956 83.4772 153.974 83.4367C153.992 83.3963 154.018 83.3599 154.05 83.33C154.4 82.9341 154.839 82.6277 155.331 82.4364C155.824 82.245 156.355 82.1742 156.88 82.23C156.924 82.2361 156.965 82.2508 157.003 82.2733C157.041 82.2958 157.074 82.3257 157.1 82.3611C157.126 82.3965 157.145 82.4367 157.155 82.4795C157.165 82.5222 157.167 82.5666 157.16 82.61C157.143 82.6976 157.093 82.7753 157.021 82.8274C156.948 82.8794 156.858 82.9018 156.77 82.89C156.354 82.849 155.935 82.9084 155.547 83.0633C155.159 83.2182 154.813 83.464 154.54 83.78C154.505 83.8161 154.463 83.8446 154.417 83.8635C154.37 83.8825 154.32 83.8915 154.27 83.89Z" fill="#263238"/>
<path d="M141.5 96.68C142.5 101.83 143.12 108.96 139.5 112.39C139.5 112.39 140.9 117.61 150.5 117.61C161.02 117.61 155.56 113.03 155.56 113.03C151.19 111.67 151.23 106.7 152.23 102.7L141.5 96.68Z" fill="#FF8B7B"/>
<path d="M152.3 111.14C154.66 109.44 158.15 107.45 158.88 109.53C159.32 110.78 159.5 116.89 157.07 116.43C153.48 115.76 152.3 111.14 152.3 111.14Z" fill="#263238"/>
<path d="M137.55 115.83C136.61 114.51 136.65 110.32 137.65 109.58C139.26 108.39 146.16 108.11 155.46 110.25C154.46 114.31 156.61 116.44 156.61 116.44L137.55 115.83Z" fill="#38A9FF"/>
<path d="M106.29 353.24C106.574 353.34 106.875 353.383 107.175 353.366C107.475 353.349 107.769 353.272 108.04 353.14C108.147 353.047 108.221 352.921 108.25 352.782C108.279 352.643 108.261 352.498 108.2 352.37C108.172 352.262 108.12 352.161 108.047 352.076C107.974 351.991 107.883 351.924 107.78 351.88C106.78 351.42 104.64 352.31 104.55 352.35C104.52 352.362 104.495 352.383 104.477 352.41C104.459 352.436 104.45 352.468 104.45 352.5C104.448 352.532 104.456 352.565 104.472 352.593C104.487 352.622 104.511 352.645 104.54 352.66C105.103 352.909 105.689 353.103 106.29 353.24ZM107.44 352.11L107.63 352.18C107.691 352.205 107.746 352.243 107.791 352.291C107.836 352.339 107.87 352.397 107.89 352.46C107.98 352.76 107.89 352.86 107.83 352.89C107.45 353.21 106.04 352.89 105.06 352.52C105.813 352.208 106.626 352.068 107.44 352.11Z" fill="#38A9FF"/>
<path d="M104.58 352.67H104.66C105.46 352.43 107.16 351.22 107.18 350.43C107.181 350.304 107.138 350.182 107.06 350.084C106.982 349.986 106.873 349.917 106.75 349.89C106.63 349.845 106.501 349.828 106.373 349.838C106.246 349.849 106.122 349.887 106.01 349.95C105.07 350.43 104.48 352.37 104.46 352.46C104.454 352.482 104.452 352.504 104.455 352.527C104.458 352.549 104.465 352.571 104.476 352.59C104.487 352.61 104.502 352.627 104.52 352.64C104.538 352.654 104.558 352.664 104.58 352.67ZM106.58 350.18H106.65C106.86 350.25 106.86 350.35 106.86 350.4C106.86 350.87 105.72 351.82 104.86 352.2C105.074 351.419 105.521 350.722 106.14 350.2C106.275 350.137 106.43 350.13 106.57 350.18H106.58Z" fill="#38A9FF"/>
<path d="M158.22 354.42C159.13 354.42 160 354.29 160.29 353.89C160.363 353.782 160.402 353.655 160.402 353.525C160.402 353.395 160.363 353.268 160.29 353.16C160.233 353.062 160.156 352.977 160.065 352.91C159.974 352.843 159.87 352.795 159.76 352.77C158.59 352.45 156.13 353.85 156.03 353.91C156 353.927 155.976 353.952 155.96 353.982C155.944 354.012 155.937 354.046 155.94 354.08C155.947 354.114 155.964 354.146 155.989 354.171C156.014 354.196 156.046 354.213 156.08 354.22C156.786 354.35 157.502 354.417 158.22 354.42ZM159.34 353.05C159.446 353.039 159.554 353.039 159.66 353.05C159.796 353.081 159.914 353.164 159.99 353.28C160.11 353.49 160.06 353.59 159.99 353.65C159.66 354.11 157.88 354.12 156.58 353.93C157.435 353.463 158.372 353.164 159.34 353.05Z" fill="#38A9FF"/>
<path d="M156.1 354.22H156.17C157.02 353.84 158.7 352.32 158.57 351.52C158.57 351.33 158.41 351.1 157.95 351.06C157.784 351.041 157.616 351.056 157.456 351.104C157.296 351.152 157.148 351.233 157.02 351.34C156.385 352.109 156.004 353.056 155.93 354.05C155.929 354.073 155.932 354.096 155.94 354.118C155.948 354.14 155.96 354.16 155.976 354.177C155.992 354.194 156.011 354.207 156.033 354.216C156.054 354.225 156.077 354.23 156.1 354.23V354.22ZM157.81 351.37H157.91C158.21 351.37 158.23 351.51 158.24 351.55C158.32 352.03 157.17 353.23 156.31 353.75C156.386 352.947 156.712 352.189 157.24 351.58C157.397 351.44 157.6 351.365 157.81 351.37Z" fill="#38A9FF"/>
<path d="M148.36 354.06H155.4L156.1 337.77H149.06L148.36 354.06Z" fill="#FF8B7B"/>
<path d="M96.74 350.8L103.61 352.29L110.52 337.12L103.64 335.63L96.74 350.8Z" fill="#FF8B7B"/>
<path d="M104.27 351.6L96.55 349.93C96.4135 349.901 96.2711 349.918 96.1459 349.98C96.0207 350.042 95.9199 350.144 95.86 350.27L93.18 356.09C93.1087 356.231 93.0717 356.387 93.0722 356.545C93.0727 356.703 93.1106 356.858 93.1828 356.999C93.255 357.139 93.3594 357.261 93.4875 357.353C93.6157 357.445 93.7639 357.506 93.92 357.53C96.63 358.06 97.98 358.19 101.37 358.92C103.46 359.38 108.18 360.53 111.06 361.15C113.94 361.77 114.94 359 113.82 358.49C108.82 356.18 106.66 354.15 105.3 352.26C105.05 351.921 104.683 351.685 104.27 351.6Z" fill="#263238"/>
<path d="M155.35 353.24H147.67C147.53 353.239 147.394 353.286 147.285 353.374C147.176 353.461 147.1 353.583 147.07 353.72L145.68 360C145.639 360.151 145.634 360.31 145.666 360.463C145.698 360.616 145.765 360.76 145.862 360.882C145.959 361.005 146.084 361.103 146.226 361.168C146.368 361.234 146.524 361.265 146.68 361.26C149.45 361.21 153.46 361.05 156.94 361.05C161.01 361.05 164.53 361.27 169.31 361.27C172.19 361.27 173 358.35 171.79 358.08C166.28 356.88 161.79 356.75 157.04 353.82C156.541 353.474 155.956 353.273 155.35 353.24Z" fill="#263238"/>
<path d="M126.92 114C120.33 115.51 114.92 132.34 114.92 132.34L128.16 142.43C131.581 138.777 133.993 134.297 135.16 129.43C137.42 120.59 133.66 112.44 126.92 114Z" fill="#38A9FF"/>
<path opacity="0.4" d="M126.92 114C120.33 115.51 114.92 132.34 114.92 132.34L128.16 142.43C131.581 138.777 133.993 134.297 135.16 129.43C137.42 120.59 133.66 112.44 126.92 114Z" fill="white"/>
<path d="M166.45 122L177.56 132.22C179.41 133.92 181.26 135.61 183.12 137.27C184.98 138.93 186.84 140.59 188.63 142.03L187.08 141.2C187.94 141.52 188.84 141.83 189.79 142.08C190.74 142.33 191.72 142.54 192.73 142.74C194.808 143.116 196.904 143.387 199.01 143.55C201.16 143.73 203.36 143.85 205.57 143.91C207.78 143.97 210.07 144.02 212.24 144.03L213.24 149.21C210.956 150.038 208.617 150.707 206.24 151.21C203.858 151.725 201.447 152.092 199.02 152.31C196.53 152.537 194.026 152.574 191.53 152.42C188.877 152.267 186.251 151.815 183.7 151.07L182.95 150.85L182.16 150.24C179.96 148.55 178.01 146.9 176.05 145.24C174.09 143.58 172.19 141.86 170.29 140.15C166.51 136.71 162.76 133.29 159.09 129.74L166.45 122Z" fill="#FF8B7B"/>
<path opacity="0.2" d="M132.57 126.36C128.99 129.9 127.82 136.36 127.57 141.96L128.16 142.41C131.578 138.755 133.99 134.276 135.16 129.41C135.29 128.89 135.41 128.41 135.5 127.84L132.57 126.36Z" fill="black"/>
<path d="M168.58 121C170.02 128.6 170.92 144.21 166.74 175.11H129.12C128.86 169.34 132.49 141.16 126.92 113.95C131.082 113.151 135.29 112.62 139.52 112.36C144.849 112.054 150.191 112.054 155.52 112.36C157.28 112.52 159.01 112.78 160.52 113.05C162.509 113.405 164.345 114.355 165.783 115.775C167.222 117.194 168.197 119.016 168.58 121Z" fill="#38A9FF"/>
<path opacity="0.4" d="M168.58 121C170.02 128.6 170.92 144.21 166.74 175.11H129.12C128.86 169.34 132.49 141.16 126.92 113.95C131.082 113.151 135.29 112.62 139.52 112.36C144.849 112.054 150.191 112.054 155.52 112.36C157.28 112.52 159.01 112.78 160.52 113.05C162.509 113.405 164.345 114.355 165.783 115.775C167.222 117.194 168.197 119.016 168.58 121Z" fill="white"/>
<path opacity="0.2" d="M162.82 132.27L169.62 130.64C169.83 134.76 169.85 139.86 169.54 146.17C166.41 142.61 162.42 137.05 162.82 132.27Z" fill="black"/>
<path opacity="0.2" d="M156.1 337.77L155.74 346.17H148.7L149.06 337.77H156.1Z" fill="black"/>
<path opacity="0.2" d="M103.64 335.63L110.52 337.12L106.95 344.94L100.08 343.45L103.64 335.63Z" fill="black"/>
<path d="M138.15 89.16C139.96 95.9 140.68 99.94 144.84 102.74C151.1 106.96 158.84 102.12 159.13 94.97C159.35 88.54 156.36 78.59 149.13 77.23C147.535 76.9225 145.888 77.0279 144.345 77.5362C142.802 78.0444 141.414 78.9387 140.314 80.134C139.214 81.3293 138.438 82.786 138.059 84.3657C137.68 85.9454 137.712 87.5958 138.15 89.16Z" fill="#FF8B7B"/>
<path d="M153.45 89.67C156.61 89.22 155.7 85.57 154.52 83.78C154.52 83.78 161.52 75.33 153.45 71.92C145.38 68.51 147.33 73.83 147.33 73.83C147.33 73.83 141 69.08 135.5 72.92C130 76.76 134.75 78.42 134.75 78.42C134.75 78.42 124.75 81.36 128.75 86.42C132.75 91.48 136.88 90.97 136.88 90.97C136.88 90.97 128.59 94.24 134.88 97.91C141.17 101.58 143.53 101.74 143.53 101.74C145.211 101.949 146.913 101.557 148.333 100.633C149.753 99.7087 150.8 98.312 151.29 96.69L153.45 89.67Z" fill="#263238"/>
<path d="M150.73 89.69C150.865 91.4242 151.568 93.0656 152.73 94.36C154.26 96.05 155.86 94.99 156.14 92.94C156.38 91.08 155.88 87.94 154 87.04C152.12 86.14 150.61 87.6 150.73 89.69Z" fill="#FF8B7B"/>
<path d="M153.4 175.14C153.4 175.14 145.4 228.89 141.03 249.03C136.23 271.08 110.5 344.03 110.5 344.03L97.91 341.3C97.91 341.3 115.91 281.84 119.91 251.01C123.01 227.33 129.1 175.12 129.1 175.12L153.4 175.14Z" fill="#263238"/>
<path d="M113.52 339.84L111.17 344.4L97 341.33L98.2 337.07L113.52 339.84Z" fill="#38A9FF"/>
<path opacity="0.3" d="M148.35 194.29C139.12 196.1 140.1 230.52 141.21 248.23C143.87 235.71 147.77 211.63 150.43 194.54C149.785 194.222 149.052 194.134 148.35 194.29Z" fill="black"/>
<path d="M166.74 175.14C166.74 175.14 167.74 227.73 166.95 249.14C166.15 271.45 158.36 344.5 158.36 344.5H146.44C146.44 344.5 146.01 272.75 145.44 250.84C144.9 227 142 175.14 142 175.14H166.74Z" fill="#263238"/>
<path d="M160.65 339.8C160.71 339.8 159.98 344.74 159.98 344.74H145.48L145.09 340.33L160.65 339.8Z" fill="#38A9FF"/>
<path d="M153.84 123.34C150.46 132.43 170.28 143.14 170.28 143.14L178.86 132.14C178.86 132.14 173.13 120.75 166.11 115.61C157.43 109.24 156.4 116.42 153.84 123.34Z" fill="#38A9FF"/>
<path opacity="0.4" d="M153.84 123.34C150.46 132.43 170.28 143.14 170.28 143.14L178.86 132.14C178.86 132.14 173.13 120.75 166.11 115.61C157.43 109.24 156.4 116.42 153.84 123.34Z" fill="white"/>
<path d="M210.76 146.95C212.119 146.95 213.22 146.122 213.22 145.1C213.22 144.078 212.119 143.25 210.76 143.25C209.401 143.25 208.3 144.078 208.3 145.1C208.3 146.122 209.401 146.95 210.76 146.95Z" fill="#263238"/>
<path d="M209.81 151C209.736 151.001 209.662 150.985 209.595 150.954C209.527 150.923 209.468 150.877 209.42 150.82C209.336 150.719 209.295 150.589 209.306 150.458C209.318 150.327 209.38 150.205 209.48 150.12C209.54 150.07 210.82 148.9 210.27 146.18C210.257 146.116 210.257 146.051 210.269 145.987C210.282 145.923 210.307 145.862 210.343 145.808C210.38 145.754 210.426 145.708 210.481 145.672C210.535 145.637 210.596 145.612 210.66 145.6C210.724 145.587 210.791 145.587 210.855 145.599C210.92 145.612 210.981 145.637 211.036 145.673C211.091 145.709 211.138 145.756 211.174 145.81C211.211 145.865 211.237 145.926 211.25 145.99C211.93 149.32 210.2 150.82 210.13 150.88C210.04 150.956 209.927 150.998 209.81 151Z" fill="#263238"/>
<path opacity="0.4" d="M212.76 145C212.76 145.76 211.87 146.37 210.76 146.37C209.65 146.37 208.76 145.76 208.76 145C208.76 144.24 209.65 143.64 210.76 143.64C211.87 143.64 212.76 144.21 212.76 145Z" fill="white"/>
<path d="M156.94 112.47C152.34 115.76 144.37 128.47 142.94 135.98C142.93 136.03 142.906 136.075 142.87 136.111C142.833 136.146 142.787 136.17 142.737 136.178C142.688 136.187 142.636 136.18 142.59 136.159C142.544 136.138 142.506 136.103 142.48 136.06C138.138 129.026 135.561 121.045 134.97 112.8C134.967 112.767 134.958 112.735 134.944 112.706C134.929 112.676 134.908 112.65 134.883 112.629C134.858 112.607 134.829 112.591 134.797 112.581C134.766 112.571 134.733 112.567 134.7 112.57C133.58 112.645 132.465 112.782 131.36 112.98C131.305 112.995 131.257 113.028 131.223 113.073C131.189 113.118 131.17 113.173 131.17 113.23C131.713 123.536 135.382 133.432 141.69 141.6C141.702 141.625 141.709 141.652 141.709 141.68C141.709 141.708 141.702 141.735 141.69 141.76C141.08 153.01 141.89 173.12 141.99 175.51C141.993 175.575 142.02 175.636 142.067 175.68C142.113 175.725 142.175 175.75 142.24 175.75H145.24C145.274 175.75 145.307 175.743 145.338 175.73C145.369 175.717 145.397 175.698 145.42 175.673C145.444 175.649 145.462 175.62 145.474 175.589C145.486 175.557 145.491 175.524 145.49 175.49C145.35 173.19 144.41 155.72 145.49 141.39C147.18 130.73 157.29 116.32 160.84 113.47C160.878 113.442 160.907 113.402 160.923 113.358C160.939 113.313 160.941 113.264 160.929 113.218C160.917 113.172 160.892 113.131 160.857 113.099C160.821 113.067 160.777 113.047 160.73 113.04C159.23 112.71 157.51 112.5 157.1 112.46C157.047 112.446 156.991 112.449 156.94 112.47Z" fill="#38A9FF"/>
</g>
<defs>
<clipPath id="clip0_92_368">
<rect width="500" height="373" fill="white"/>
</clipPath>
</defs>
</svg>
