<svg width="147" height="50" viewBox="0 0 147 50" fill="none" xmlns="http://www.w3.org/2000/svg">
<g clip-path="url(#clip0_155_171)">
<path d="M29.8412 32.3673L37.3854 35.5329C38.4832 36.0174 39.2043 37.1157 39.215 38.3109L38.8599 49.9937H27.0217C27.0217 49.9937 22.7492 42.9947 22.3616 42.4996C22.1034 42.1334 22.0172 41.4445 22.0172 41.4445C21.8881 40.8306 21.8774 34.9948 21.8774 34.9948C21.8774 34.0256 22.6953 33.2182 23.6531 33.2182C24.6217 33.2182 25.4288 34.0365 25.4288 34.9948V39.2048C25.4288 39.4418 25.6118 39.6356 25.8593 39.6356C25.9132 39.6356 25.9778 39.6249 26.0207 39.6033C26.1714 39.528 26.2899 39.3772 26.2899 39.1941V24.9703C26.3438 24.0981 27.1078 23.3769 28.0226 23.3769H28.0656C29.0772 23.3769 29.8412 24.1952 29.8412 25.1534V32.3673ZM42.9596 14.9716L35.7122 8.3714V0.71231H31.4928V4.48893L26.5893 0.00634766L10.1149 14.76L12.6195 17.5836L15.1594 15.2894V31.2014H24.5447V24.9701V24.9162L24.548 24.8625C24.6599 23.0504 26.1858 21.6306 28.0224 21.6306H28.0653C30.0066 21.6306 31.5859 23.2108 31.5859 25.153L31.5918 31.2003L37.8958 31.2068L37.8899 15.4304L40.3891 17.7246L42.9596 14.9716Z" fill="#072135"/>
<path d="M12.4825 20.0591L7.6565 14.6185L15.9375 7.20248L13.6983 5.15552L0.0403442 17.3867L2.1168 19.7276L4.22249 17.8255V31.201H13.4145V19.2174L12.4825 20.0591Z" fill="#38A9FF"/>
<path d="M48.9514 12.0903V5.74056H45.4533V8.87145L41.3881 5.15527L38.0529 8.14214L45.4413 14.8709L40.4835 20.1808L39.6348 19.4017V31.2012H50.7568V17.9427L52.8286 19.8447L54.9596 17.5623L48.9514 12.0903Z" fill="#38A9FF"/>
</g>
<path fill-rule="evenodd" clip-rule="evenodd" d="M73.0007 8C74.4752 8 75.5907 8.34018 76.3472 9.02054C77.1037 9.7009 77.4819 10.7022 77.4819 12.0244V12.9872C77.4819 14.2838 77.1037 15.2658 76.3472 15.9333C76.1019 16.1456 75.8188 16.3233 75.498 16.4668L77.7128 21.479H74.6163L72.6676 16.9154H70.0196V21.479H67V8H73.0007ZM70.0196 14.8165H72.0967C72.9301 14.8165 73.552 14.6432 73.9623 14.2966C74.3726 13.95 74.5778 13.4173 74.5778 12.6984V12.2748C74.5778 11.5302 74.3726 10.9846 73.9623 10.638C73.5648 10.2914 72.943 10.1181 72.0967 10.1181H70.0196V14.8165Z" fill="#072135"/>
<path d="M89.4576 10.1566H83.1107V13.6997H89.0729V15.8178H83.1107V19.3223H89.5345V21.479H80.0911V8H89.4576V10.1566Z" fill="#072135"/>
<path fill-rule="evenodd" clip-rule="evenodd" d="M104.333 21.479H101.255L100.25 18.3981H94.6303L93.62 21.479H90.5427L95.0432 8H99.8322L104.333 21.479ZM95.325 16.2799H99.5591L97.4858 9.92557H97.4089L95.325 16.2799Z" fill="#072135"/>
<path d="M109.199 19.3223H114.584V21.479H106.18V8H109.199V19.3223Z" fill="#072135"/>
<path d="M123.576 10.1566H119.979V21.479H116.96V10.1566H113.363V8H123.576V10.1566Z" fill="#072135"/>
<path d="M130.161 14.6432H130.238L132.892 8H136.104L131.661 17.4329V21.479H128.718V17.3924L124.275 8H127.507L130.161 14.6432Z" fill="#072135"/>
<path fill-rule="evenodd" clip-rule="evenodd" d="M73.3276 29.521C74.2636 29.521 75.0393 29.643 75.6548 29.8869C76.2831 30.118 76.7575 30.471 77.0781 30.9459C77.3986 31.4209 77.5588 32.0243 77.5588 32.756V32.8715C77.5588 33.8728 77.2191 34.6751 76.5395 35.2784C76.1321 35.6325 75.6371 35.8871 75.0546 36.0428C75.823 36.1835 76.4269 36.4357 76.8665 36.7996C77.546 37.3388 77.8923 38.1733 77.9051 39.3029V39.4569C77.9051 40.638 77.5525 41.5237 76.8473 42.1143C76.1549 42.7048 75.1099 43 73.7123 43H67V29.521H73.3276ZM70.0196 40.9589H72.7506C73.2635 40.9589 73.6738 40.8947 73.9816 40.7663C74.2893 40.638 74.5137 40.439 74.6547 40.1694C74.7958 39.887 74.8662 39.5275 74.8662 39.0911V38.8986C74.8662 38.2824 74.706 37.8203 74.3854 37.5122C74.0649 37.2041 73.5905 37.05 72.9622 37.05H70.0196V40.9589ZM70.0196 35.2592H72.8276C73.1994 35.2592 73.5135 35.1886 73.77 35.0474C74.0392 34.8934 74.2444 34.6816 74.3854 34.412C74.5393 34.1296 74.6163 33.8022 74.6163 33.43V33.2759C74.6163 32.6854 74.4431 32.2553 74.097 31.9858C73.7508 31.7033 73.2058 31.5621 72.4622 31.5621H70.0196V35.2592Z" fill="#38A9FF"/>
<path fill-rule="evenodd" clip-rule="evenodd" d="M92.9883 43H89.911L88.9058 39.9191H83.2859L82.2756 43H79.1983L83.6988 29.521H88.4878L92.9883 43ZM83.9806 37.801H88.2147L86.1414 31.4466H86.0645L83.9806 37.801Z" fill="#38A9FF"/>
<path d="M105.034 31.3696L98.1132 40.8434H105.034V43H94.4557V41.1514L101.311 31.6777H94.8404V29.521H105.034V31.3696Z" fill="#38A9FF"/>
<path fill-rule="evenodd" clip-rule="evenodd" d="M119.584 43H116.507L115.501 39.9191H109.881L108.871 43H105.794L110.294 29.521H115.083L119.584 43ZM110.576 37.801H114.81L112.737 31.4466H112.66L110.576 37.801Z" fill="#38A9FF"/>
<path fill-rule="evenodd" clip-rule="evenodd" d="M134.44 43H131.363L130.358 39.9191H124.738L123.728 43H120.65L125.151 29.521H129.94L134.44 43ZM125.433 37.801H129.667L127.594 31.4466H127.517L125.433 37.801Z" fill="#38A9FF"/>
<path fill-rule="evenodd" clip-rule="evenodd" d="M142.288 29.521C143.762 29.521 144.878 29.8612 145.634 30.5416C146.391 31.2219 146.769 32.2232 146.769 33.5455V34.5083C146.769 35.8048 146.391 36.7869 145.634 37.4544C145.389 37.6667 145.106 37.8444 144.785 37.9879L147 43H143.904L141.955 38.4364H139.307V43H136.287V29.521H142.288ZM139.307 36.3376H141.384C142.217 36.3376 142.839 36.1642 143.25 35.8176C143.66 35.471 143.865 34.9383 143.865 34.2194V33.7958C143.865 33.0513 143.66 32.5057 143.25 32.1591C142.852 31.8125 142.23 31.6392 141.384 31.6392H139.307V36.3376Z" fill="#38A9FF"/>
<defs>
<clipPath id="clip0_155_171">
<rect width="55" height="50" fill="white"/>
</clipPath>
</defs>
</svg>
